<svg id="图层_1" data-name="图层 1" xmlns="http://www.w3.org/2000/svg" viewBox="0 0 786.26 176.83"><path d="M117,3.8A34.79,34.79,0,0,1,134,.93c-2.58,2-5.23,3.88-7.8,5.87A68,68,0,0,0,117,3.8Z" transform="translate(0.18 -0.79)" style="fill:#e05a14"/><path d="M115.93,4.27c2.33-1.13,7.68,1.79,10.27,2.53a74.43,74.43,0,0,0-5.64,4.86c-3.74-1.66-7.82-2.22-11.77-3.18A43.45,43.45,0,0,1,115.93,4.27Z" transform="translate(0.18 -0.79)" style="fill:#e05a14"/><path d="M175.76,82.57a71.52,71.52,0,0,1,8,14.3A81.82,81.82,0,0,1,180.09,115a59.43,59.43,0,0,0-6.19-8.36C176.19,98.85,176,90.57,175.76,82.57Z" transform="translate(0.18 -0.79)" style="fill:#e05a14"/><path d="M150.59,148.36l0,0a29.26,29.26,0,0,1,1.75,8.42c-3.17,1.93-5.75,4.72-9.08,6.44a49,49,0,0,0,0-9.06C146.13,153,148.3,150.36,150.59,148.36Z" transform="translate(0.18 -0.79)" style="fill:#e05a14"/><path d="M61.19,26.88C68,18.56,76.82,11.56,87.11,8.13a148.15,148.15,0,0,0-9.19,12.68C72,21.5,66.59,24.52,61.19,26.88Z" transform="translate(0.18 -0.79)" style="fill:#e05a14"/><path d="M126.8,27.34c7.15-4.22,14.51-2.7,20.93,2-4.08,1-8.25,1.76-12.13,3.4A74.24,74.24,0,0,0,126.8,27.34Z" transform="translate(0.18 -0.79)" style="fill:#e05a14"/><path d="M98.94,17.6a54.85,54.85,0,0,1,9.81-9.14c4,1,8.06,1.53,11.81,3.2a108.3,108.3,0,0,0-7.2,8.24A60.77,60.77,0,0,0,98.94,17.6Z" transform="translate(0.18 -0.79)" style="fill:#e05a14"/><path d="M93,26.8a54,54,0,0,1,6-9.2,60.77,60.77,0,0,1,14.42,2.3c-2.14,2.69-4.14,5.49-6,8.36C102.75,26.64,97.75,27,93,26.8Z" transform="translate(0.18 -0.79)" style="fill:#e05a14"/><path d="M72.35,22.15c1.83-.52,3.63-1.35,5.57-1.34a69.23,69.23,0,0,0-6,11.86c-9.66,3.08-17.68,10.08-24.42,17.46A72.42,72.42,0,0,1,61.19,26.88,110.42,110.42,0,0,1,72.35,22.15Z" transform="translate(0.18 -0.79)" style="fill:#e05a14"/><path d="M124.75,139.57a18.16,18.16,0,0,1,2.65-1.49A54.52,54.52,0,0,1,115.53,157c-14.11,3.82-29.29,4.06-43.2-.81v-.12a91.92,91.92,0,0,0,16.94-8.64A57.1,57.1,0,0,0,124.75,139.57Z" transform="translate(0.18 -0.79)" style="fill:#e05a14"/><path d="M89.07,36.36A60.7,60.7,0,0,1,93,26.8c4.77.18,9.77-.16,14.34,1.46-1.83,2.77-3.54,5.62-5.16,8.52C97.85,35.71,93.44,36.15,89.07,36.36Z" transform="translate(0.18 -0.79)" style="fill:#e05a14"/><path d="M146.05,107.24a72.17,72.17,0,0,1,6.3,4.09c-1.33,2.82-2.43,5.8-4.25,8.35q-2.32-3-4.77-6C144.32,111.58,145.22,109.42,146.05,107.24Z" transform="translate(0.18 -0.79)" style="fill:#e05a14"/><path d="M114.74,40.05c3.08-5,6.83-9.84,12.06-12.71a74.24,74.24,0,0,1,8.8,5.42,58.12,58.12,0,0,0-14.93,10.36C119.09,41.46,116.76,41,114.74,40.05Z" transform="translate(0.18 -0.79)" style="fill:#e05a14"/><path d="M68.07,34.18A12.21,12.21,0,0,1,72,32.67a82.81,82.81,0,0,0-4,15.48C55.7,56.1,47.76,69.61,45.89,84,42.7,73,43.68,60.89,47.55,50.13,53.36,43.65,60.09,37.85,68.07,34.18Z" transform="translate(0.18 -0.79)" style="fill:#e05a14"/><path d="M89.07,36.36c4.37-.21,8.78-.65,13.09.42-1.24,2.25-2.42,4.54-3.55,6.85-3.79-.66-7.59,0-11.4.18A67.58,67.58,0,0,1,89.07,36.36Z" transform="translate(0.18 -0.79)" style="fill:#e05a14"/><path d="M111.37,46.39a61,61,0,0,1,3.37-6.34c2,.9,4.35,1.41,5.93,3.07-1.78,1.69-3.5,3.44-5.14,5.26A31.75,31.75,0,0,0,111.37,46.39Z" transform="translate(0.18 -0.79)" style="fill:#e05a14"/><path d="M87.21,43.81c3.81-.19,7.61-.84,11.4-.18-1.14,2.36-2.21,4.75-3.23,7.16-2.93-.55-5.89.08-8.77.66l-.41-.39A67.6,67.6,0,0,1,87.21,43.81Z" transform="translate(0.18 -0.79)" style="fill:#e05a14"/><path d="M111.37,46.39a31.75,31.75,0,0,1,4.16,2A128,128,0,0,0,107.1,59,66.42,66.42,0,0,1,111.37,46.39Z" transform="translate(0.18 -0.79)" style="fill:#e05a14"/><path d="M125.59,102.38c1.85-5.14,3.1-10.48,5.08-15.58.7,4.61,1.24,9.25,1.49,13.91,2.16.83,4.31,1.7,6.42,2.67a9.24,9.24,0,0,1-1.45,3.25c-1.64-1.67-3.25-3.37-4.91-5a105.28,105.28,0,0,1-.88,21.58c-8.4,7.79-18.71,14.18-30.38,15.11A96.23,96.23,0,0,0,125.59,102.38Z" transform="translate(0.18 -0.79)" style="fill:#e05a14"/><path d="M55.53,59.94A49.21,49.21,0,0,1,68,48.15a83.79,83.79,0,0,0-.93,14.5c-12.49,11.87-13.62,31.58-5.8,46.29-7-6.87-12.72-15.4-15.37-24.91C47.17,75.39,50.16,66.92,55.53,59.94Z" transform="translate(0.18 -0.79)" style="fill:#e05a14"/><path d="M86.61,51.45c2.88-.58,5.84-1.21,8.77-.66-1,2.31-1.88,4.63-2.73,7A45,45,0,0,0,85.84,59c0-2.66.13-5.31.33-8Z" transform="translate(0.18 -0.79)" style="fill:#e05a14"/><path d="M85.84,59a45,45,0,0,1,6.81-1.22c-1.07,2.83-2,5.73-2.92,8.58a9.81,9.81,0,0,0-3.23.92l-.17-.06A70.43,70.43,0,0,1,85.84,59Z" transform="translate(0.18 -0.79)" style="fill:#e05a14"/><path d="M108.57,62.57a64.65,64.65,0,0,1,20.57-4.22c5.87,7.38,10.28,15.87,11.43,25.35a103.45,103.45,0,0,0-18.12-5c-1.88-7-7.84-12.41-14-16Z" transform="translate(0.18 -0.79)" style="fill:#e05a14"/><path d="M129.14,58.35a51.47,51.47,0,0,1,16.7,2c4.79,8.86,8,19,7.41,29.16l-.16.06a101.11,101.11,0,0,0-12.52-5.86C139.42,74.22,135,65.73,129.14,58.35Z" transform="translate(0.18 -0.79)" style="fill:#e05a14"/><path d="M145.84,60.34a53.21,53.21,0,0,1,17,8.82c2.26,9.35,3.62,19.08,2.16,28.67A90.09,90.09,0,0,0,153.3,89.7C153.74,79.49,150.72,69.27,145.84,60.34Z" transform="translate(0.18 -0.79)" style="fill:#e05a14"/><path d="M152.35,111.33l0,0c1.71,1.27,3.42,2.56,5,3.94-1.88,3.22-2.94,7-5.48,9.79-1.24-1.8-2.53-3.58-3.84-5.34C149.92,117.13,151,114.15,152.35,111.33Z" transform="translate(0.18 -0.79)" style="fill:#e05a14"/><path d="M64.78,65a12.29,12.29,0,0,1,2.28-2.39c.33,26.53,13.25,50.93,31.94,69.17-4.36-1.68-8.62-3.58-12.81-5.64-1,.82-2,1.62-3,2.39-1.07-.52-2.18-1-3.29-1.37,1.85-.44,3.69-.92,5.52-1.41-8.76-4.47-17.16-9.86-24.14-16.85C54,95.09,54.39,77.3,64.78,65Z" transform="translate(0.18 -0.79)" style="fill:#e05a14"/><path d="M103.89,64.38c1.51-.52,3-1.53,4.6-1.63,6.06,3.53,12,8.84,13.9,15.77-7.78-.66-15.76-1.65-23.66-.88-7.8.36-15.22,3-22.88,4.24,3.63-2.93,7.37-5.71,11.27-8.27-.16-2.09-.93-4.28-.62-6.34a8,8,0,0,1,3-.85l.07.17c-.46,2.19-1.23,4.31-1.75,6.5A107.15,107.15,0,0,1,103.89,64.38Z" transform="translate(0.18 -0.79)" style="fill:#e05a14"/><path d="M162.8,69.16a62.68,62.68,0,0,1,13,13.41c.24,8,.43,16.28-1.86,24A82.18,82.18,0,0,0,165,97.83C166.42,88.24,165.06,78.51,162.8,69.16Z" transform="translate(0.18 -0.79)" style="fill:#e05a14"/><path d="M157.42,115.23a61.68,61.68,0,0,1,9.94,10.55A66.74,66.74,0,0,1,159.87,138a136.17,136.17,0,0,0-7.93-13C154.48,122.25,155.54,118.45,157.42,115.23Z" transform="translate(0.18 -0.79)" style="fill:#e05a14"/><path d="M17.58,96c4.14,4.13,8,8.75,13.31,11.37.4,3.83,2.39,7.26,3.76,10.8C23.66,116.21,15.68,107.42,17.58,96Z" transform="translate(0.18 -0.79)" style="fill:#e05a14"/><path d="M30.61,130.84a127.8,127.8,0,0,0,12.83.73c3.1,4.28,7.4,7.52,11.19,11.14a60.23,60.23,0,0,1-13.08,1.85C37.67,140.22,33.24,136.1,30.61,130.84Z" transform="translate(0.18 -0.79)" style="fill:#e05a14"/><path d="M183.74,96.87c5,11.38,7.65,24.22,5.14,36.57A120.84,120.84,0,0,0,180.09,115,81.82,81.82,0,0,0,183.74,96.87Z" transform="translate(0.18 -0.79)" style="fill:#e05a14"/><path d="M-.18,121.93c4.95,2,9.78,4.37,14.9,5.94a85.51,85.51,0,0,0,8,13.69C13.1,138.1,4.12,131.46-.18,121.93Z" transform="translate(0.18 -0.79)" style="fill:#e05a14"/><path d="M172.25,133.41c7,13.48,8.52,31.34-.59,44.21-.88-11-3.22-21.81-8-31.82A78.23,78.23,0,0,0,172.25,133.41Z" transform="translate(0.18 -0.79)" style="fill:#e05a14"/><path d="M149.57,158.76a15.52,15.52,0,0,1,2.81-2c.59,8.89-4.22,15.18-12.19,18.56,1.16-4,2.58-8,3.11-12.12A45.69,45.69,0,0,0,149.57,158.76Z" transform="translate(0.18 -0.79)" style="fill:#e05a14"/><path d="M138.58,103.38q3.82,1.75,7.47,3.86c-.83,2.18-1.73,4.34-2.72,6.45-2-2.4-4.07-4.76-6.22-7A9.48,9.48,0,0,0,138.58,103.38Z" transform="translate(0.18 -0.79)" style="fill:#e05a14"/><path d="M46.41,113.33a125.54,125.54,0,0,0,17,2.9,68.08,68.08,0,0,1-13.73,2.61A25.59,25.59,0,0,1,46.41,113.33Z" transform="translate(0.18 -0.79)" style="fill:#e05a14"/><path d="M32.5,113a19.32,19.32,0,0,1-1.61-5.6,69.73,69.73,0,0,0,15.52,6,25.59,25.59,0,0,0,3.29,5.51,57.93,57.93,0,0,1-15.05-.71C34,116.39,33.12,114.73,32.5,113Z" transform="translate(0.18 -0.79)" style="fill:#e05a14"/><path d="M125.68,128c1.92-1.54,3.65-3.31,5.61-4.8a69.81,69.81,0,0,1-3.84,14.84c-11.33,7.05-24.81,11-38.19,9.37A98.27,98.27,0,0,0,101,138.3C110,137.49,118.6,133.55,125.68,128Z" transform="translate(0.18 -0.79)" style="fill:#e05a14"/><path d="M134.9,125.35a67.68,67.68,0,0,1,8.86,10.18,24.93,24.93,0,0,1-3.54,3.65A133.71,133.71,0,0,0,134.9,125.35Z" transform="translate(0.18 -0.79)" style="fill:#e05a14"/><path d="M167.35,126h.15a47.86,47.86,0,0,1,4.75,7.41,78.23,78.23,0,0,1-8.59,12.39q-1.77-3.95-3.79-7.76A79.53,79.53,0,0,0,167.35,126Z" transform="translate(0.18 -0.79)" style="fill:#e05a14"/><path d="M61.73,130.49a168.75,168.75,0,0,0,18.15-3.29c1.11.41,2.22.85,3.29,1.37a87.06,87.06,0,0,1-12.55,8C67.53,134.74,64.32,133,61.73,130.49Z" transform="translate(0.18 -0.79)" style="fill:#e05a14"/><path d="M14.72,127.87a103.21,103.21,0,0,0,15.89,3c2.63,5.26,7.06,9.38,10.94,13.72a49.89,49.89,0,0,1-18.79-3A85.51,85.51,0,0,1,14.72,127.87Z" transform="translate(0.18 -0.79)" style="fill:#e05a14"/><path d="M43.44,131.57a139.85,139.85,0,0,0,18.29-1.08c2.59,2.52,5.8,4.25,8.89,6.07a73.51,73.51,0,0,1-16,6.15C50.84,139.09,46.54,135.84,43.44,131.57Z" transform="translate(0.18 -0.79)" style="fill:#e05a14"/><path d="M143.76,135.53a61.7,61.7,0,0,1,4.06,6.64c-2,1.36-3.49,3.45-5.61,4.72-.54-2.6-1.22-5.17-2-7.71A24.93,24.93,0,0,0,143.76,135.53Z" transform="translate(0.18 -0.79)" style="fill:#e05a14"/><path d="M142.21,146.89c2.12-1.27,3.56-3.36,5.61-4.72a50.39,50.39,0,0,1,2.77,6.19c-2.29,2-4.46,4.64-7.31,5.76A67.36,67.36,0,0,0,142.21,146.89Z" transform="translate(0.18 -0.79)" style="fill:#e05a14"/><path d="M55.59,160.16c5.73-.61,11.25-2.45,16.74-4,13.91,4.87,29.09,4.63,43.2.81a52,52,0,0,1-22.84,13.37A82.54,82.54,0,0,1,55.59,160.16Z" transform="translate(0.18 -0.79)" style="fill:#e05a14"/><path d="M29.49,158.93c8.62,1.27,17.4,2.26,26.1,1.23A82.75,82.75,0,0,0,92.9,170.39C71.85,176.55,46.54,173.31,29.49,158.93Z" transform="translate(0.18 -0.79)" style="fill:#e05a14"/><path d="M228.1,54.81h58.07V41.53H233.3V33.72H333.69q18.49,0,26.3-5.34v7.94q-5.21,5.22-26.3,5.21H307.26V54.81h58.07v7.95H344.24q5.2,21.09,21.09,39.58l-2.6,5.21a32.23,32.23,0,0,1-7.94-2.33V163H238.64v-57.8a32.23,32.23,0,0,1-7.94,2.33l-2.6-5.21q15.74-18.5,21.09-39.58H228.1Zm79.16,7.95V97H286.17V62.76H270.28Q266.58,90,244.8,102.34H348.62Q326.71,90,323.15,62.76Zm-47.53,65.88h74V110.28h-74Zm74,7.94h-74v18.49h74Z" transform="translate(0.18 -0.79)" style="fill:#e05a14"/><path d="M368.35,37.56h21.09V28.38h21.09v9.18H463.4V28.38h21.09v9.18h21.09V45.5H484.49v9.31H463.4V45.5H410.53v9.31H389.44V45.5H368.35Zm39.58,19.86A52,52,0,0,1,404,68h34.65l-4.25-10.54h21.09L459.7,68H503v8H458.06V86.45h42.18v8H458.06v10.54h42.18v8H458.06v10.54h47.52v7.95H400v5.2H378.89V87.82A32,32,0,0,1,371,89.06l-2.6-5.21Q381.76,71,386.84,57.42Zm-10.55,81.9q-1.63,16.44-14.24,23A26.35,26.35,0,0,1,371,165.62l-2.6-5.21q5.19-7.93,7.94-21.09ZM437,86.45V75.91H400V86.45Zm0,18.49V94.4H400v10.54Zm0,18.49V112.89H400v10.54ZM415.87,163l-7.94-23.7H429L437,163Zm34.24,0-7.94-23.7H463.4l7.81,23.7Zm34.38,0-7.94-23.7h21.09l7.94,23.7Z" transform="translate(0.18 -0.79)" style="fill:#e05a14"/><path d="M560,104.94,549.41,86.45q-13.29,17.13-35.61,21.1l-2.6-5.21q15.62-12.47,22.87-29H511.2V65.36h25.47a34.9,34.9,0,0,0,1-7.94V44.27h-6.3Q523.25,57,511.2,60l-2.6-5.21q5.19-10.55,7.94-26.43h21.09a46.21,46.21,0,0,1-2.33,7.94h44.52v8h-21.1V57.42a56.8,56.8,0,0,1-.54,7.94h24.24V73.3H564.2l18.22,31.64Zm-43.42,5.34V163H637.89V110.28ZM616.8,132.61H537.63V118.09H616.8Zm-79.17,7.94H616.8v14.52H537.63ZM585.16,33.72v71.22h55.33V33.72Zm34.24,7.81V97H606.25V41.53Z" transform="translate(0.18 -0.79)" style="fill:#e05a14"/><path d="M648.85,33.72h58.07v7.81h-4.11v103h4.11v7.94h-4.11v13.15H681.44V152.47H648.85v-7.94h4v-103h-4Zm32.59,7.81h-7.12v29h7.12Zm0,37h-7.12v29h7.12Zm0,37h-7.12v29h7.12Zm35.48-63.28-4.8-23.83h21.09L738,52.21h17l4.66-23.83h21.09l-4.66,23.83h7.4V60H756.77V91.79c0,2.65-.09,5.26-.27,7.81h29.58v8H758.83q6,31.37,27.25,52.86l-2.6,5.21q-23.15-7.68-37-32.19-14,24.52-37,32.19l-2.6-5.21q21.23-21.49,27.12-52.86H706.92v-8h28.21a74.21,74.21,0,0,0,.41-7.81L735.68,60H709.52V52.21Z" transform="translate(0.18 -0.79)" style="fill:#e05a14"/></svg>